<svg xmlns="http://www.w3.org/2000/svg" width="36" height="36" viewBox="0 0 40 40">
  <g id="call" transform="translate(-1564 -1062)">
    <circle id="Ellipse_10" data-name="Ellipse 10" cx="20" cy="20" r="20" transform="translate(1564 1062)" fill="#3dcb2f"/>
    <path id="_211830_telephone_icon" data-name="211830_telephone_icon" d="M99.014,94.609c-.829-.852-3.187-2.449-4.732-2.449a1.681,1.681,0,0,0-.926.244,5.085,5.085,0,0,1-1.648.858c-.159,0-.33-.142-.7-.466l-.062-.057a19.707,19.707,0,0,1-1.665-1.557l-.1-.108c-.074-.074-.136-.142-.2-.2-.352-.364-.608-.625-1.511-1.648l-.04-.045c-.432-.489-.716-.807-.733-1.04s.182-.6.687-1.284a2.809,2.809,0,0,0,.074-3.039,13.826,13.826,0,0,0-1.829-2.625l-.057-.068A2.453,2.453,0,0,0,83.641,80.1a3.41,3.41,0,0,0-1.818.659c-.028.017-.057.04-.085.057A3.646,3.646,0,0,0,80.159,82.7c-.324,1.051-.54,2.414,1.011,5.249a25.366,25.366,0,0,0,4.488,6.084,27.117,27.117,0,0,0,4.431,3.772,10.3,10.3,0,0,0,5.295,2.289,3.863,3.863,0,0,0,3.653-1.7C100.514,96.615,99.9,95.524,99.014,94.609Z" transform="translate(1494.073 991.9)" fill="#fff"/>
  </g>
</svg>
