<svg xmlns="http://www.w3.org/2000/svg" width="16.287" height="11.707" viewBox="0 0 16.287 11.707">
  <g id="noun-email-4868026" transform="translate(-126 -119)">
    <path id="Path_59" data-name="Path 59" d="M140.251,119H128.036A2.036,2.036,0,0,0,126,121.036v7.635a2.036,2.036,0,0,0,2.036,2.036h12.215a2.036,2.036,0,0,0,2.036-2.036v-7.635A2.036,2.036,0,0,0,140.251,119Zm1.018,9.67a1.018,1.018,0,0,1-1.018,1.018H128.036a1.018,1.018,0,0,1-1.018-1.018v-7.635a1.018,1.018,0,0,1,1.018-1.018h12.215a1.018,1.018,0,0,1,1.018,1.018Z" transform="translate(0 0)" fill="#fff"/>
    <path id="Path_60" data-name="Path 60" d="M193.354,189.134l-5.277,4.316-5.277-4.316a.509.509,0,1,0-.645.788l5.6,4.581a.509.509,0,0,0,.645,0l5.6-4.581a.509.509,0,1,0-.645-.788Z" transform="translate(-53.933 -67.473)" fill="#fff"/>
  </g>
</svg>
