<svg xmlns="http://www.w3.org/2000/svg" width="14.848" height="14.849" viewBox="0 0 14.848 14.849">
  <path id="phone" d="M14.642,12.347l-2.094,2.077a1.515,1.515,0,0,1-1.117.425,9.682,9.682,0,0,1-4.8-1.809,18.517,18.517,0,0,1-5.6-6.112A7.908,7.908,0,0,1,0,3.442,1.524,1.524,0,0,1,.429,2.31L2.522.217A.693.693,0,0,1,3.656.406L5.34,3.6a.927.927,0,0,1-.189,1.054l-.771.771a.38.38,0,0,0-.079.22A6.575,6.575,0,0,0,6.284,8.572,6.578,6.578,0,0,0,9.03,10.515a.435.435,0,0,0,.4-.039l.9-.912a1.024,1.024,0,0,1,1.086-.157h.016L14.468,11.2a.731.731,0,0,1,.173,1.148Z" fill="#fff"/>
</svg>
