<svg xmlns="https://www.w3.org/2000/svg" width="40" height="40" viewBox="0 0 40 40">
<g id="menu-toggle" transform="translate(-370.074 -22)">
<path id="Path_308" data-name="Path 308" d="M1.5,0A1.5,1.5,0,1,1,0,1.5,1.5,1.5,0,0,1,1.5,0Z" transform="translate(370.074 22)" fill="#fff"></path>
<path id="Path_307" data-name="Path 307" d="M1.5,0A1.5,1.5,0,1,1,0,1.5,1.5,1.5,0,0,1,1.5,0Z" transform="translate(370.074 30)" fill="#fff"></path>
<path id="Path_306" data-name="Path 306" d="M1.5,0A1.5,1.5,0,1,1,0,1.5,1.5,1.5,0,0,1,1.5,0Z" transform="translate(370.074 38)" fill="#fff"></path>
<path id="Path_305" data-name="Path 305" d="M1.5,0A1.5,1.5,0,1,1,0,1.5,1.5,1.5,0,0,1,1.5,0Z" transform="translate(378.074 22)" fill="#fff"></path>
<path id="Path_304" data-name="Path 304" d="M1.5,0A1.5,1.5,0,1,1,0,1.5,1.5,1.5,0,0,1,1.5,0Z" transform="translate(378.074 30)" fill="#fff"></path>
<path id="Path_303" data-name="Path 303" d="M1.5,0A1.5,1.5,0,1,1,0,1.5,1.5,1.5,0,0,1,1.5,0Z" transform="translate(378.074 38)" fill="#fff"></path>
<path id="Path_302" data-name="Path 302" d="M1.5,0A1.5,1.5,0,1,1,0,1.5,1.5,1.5,0,0,1,1.5,0Z" transform="translate(386.074 22)" fill="#fff"></path>
<path id="Path_301" data-name="Path 301" d="M1.5,0A1.5,1.5,0,1,1,0,1.5,1.5,1.5,0,0,1,1.5,0Z" transform="translate(386.074 30)" fill="#fff"></path>
<path id="Path_300" data-name="Path 300" d="M1.5,0A1.5,1.5,0,1,1,0,1.5,1.5,1.5,0,0,1,1.5,0Z" transform="translate(386.074 38)" fill="#fff"></path>
</g>
</svg>