<svg xmlns="http://www.w3.org/2000/svg" xmlns:xlink="http://www.w3.org/1999/xlink" width="24" height="24" viewBox="0 0 24 24">
  <defs>
    <clipPath id="clip-path">
      <rect id="Rectangle_67" data-name="Rectangle 67" width="17.981" height="16.712" fill="none"/>
    </clipPath>
  </defs>
  <g id="selfie" transform="translate(-132 -975)">
    <rect id="Recta_22" data-name="Recta 22" width="24" height="24" rx="12" transform="translate(132 975)" fill="#deb387" opacity="0"/>
    <g id="Group_39772" data-name="Group 39772" transform="translate(135.01 979)">
      <g id="Group_39771" data-name="Group 39771" clip-path="url(#clip-path)">
        <path id="Path_116" data-name="Path 116" d="M70.413,11.564H66a1.928,1.928,0,0,1-2.006-2.006q0-2.81,0-5.62a1.922,1.922,0,0,1,2-2.006c.906,0,.852.02,1.337-.719A2.852,2.852,0,0,1,68.07.349,1.911,1.911,0,0,1,69.159,0c.836,0,1.672-.007,2.508,0a1.853,1.853,0,0,1,1.542.8c.189.258.362.529.537.8a.691.691,0,0,0,.622.333,3.331,3.331,0,0,1,1.189.111,1.928,1.928,0,0,1,1.276,1.794q.005,2.91,0,5.821a1.919,1.919,0,0,1-1.9,1.9c-1.5.005-3.01,0-4.515,0m.01-7.708a2.57,2.57,0,1,0,2.559,2.57,2.573,2.573,0,0,0-2.559-2.57" transform="translate(-61.425 0)" fill="#fff"/>
        <path id="Path_117" data-name="Path 117" d="M7.358,246.111a.708.708,0,0,1-.266-.707.631.631,0,0,1,1.057-.318c.444.426.877.864,1.306,1.306a.612.612,0,0,1,0,.87q-.65.67-1.319,1.32a.638.638,0,0,1-.9-.9,2.041,2.041,0,0,1,.252-.2l-.04-.065-.648-.065a14.994,14.994,0,0,1-4.195-.971,5.442,5.442,0,0,1-1.961-1.252A2.114,2.114,0,0,1,.868,241.9a.637.637,0,0,1,1.036.334.624.624,0,0,1-.184.622c-.033.033-.073.059-.106.091a.82.82,0,0,0-.088,1.227,3.216,3.216,0,0,0,1.092.8,10.6,10.6,0,0,0,3.009.924c.467.08.938.132,1.408.193.09.012.182.009.322.015" transform="translate(0 -232.051)" fill="#fff"/>
        <path id="Path_118" data-name="Path 118" d="M309.713,243.572a2.28,2.28,0,0,1-.731,1.587,5.576,5.576,0,0,1-2.186,1.3c-.673.23-1.366.4-2.055.581a.634.634,0,0,1-.8-.476.654.654,0,0,1,.523-.775c.478-.119.961-.224,1.431-.369a5.776,5.776,0,0,0,1.979-.978,2.479,2.479,0,0,0,.287-.278.83.83,0,0,0-.119-1.3.652.652,0,0,1-.178-.826.636.636,0,0,1,.949-.2,2.276,2.276,0,0,1,.9,1.73" transform="translate(-291.732 -232.009)" fill="#fff"/>
        <path id="Path_119" data-name="Path 119" d="M193.313,128.152a1.284,1.284,0,1,1-1.278,1.294,1.285,1.285,0,0,1,1.278-1.294" transform="translate(-184.331 -123.01)" fill="#fff"/>
      </g>
    </g>
  </g>
</svg>
