<svg xmlns="http://www.w3.org/2000/svg" width="36" height="36" viewBox="0 0 40 40">
  <g id="_19-telegram" data-name="19-telegram" transform="translate(-4.132 -4.132)">
    <circle id="Ellipse_11" data-name="Ellipse 11" cx="20" cy="20" r="20" transform="translate(4.132 4.132)" fill="#04acde"/>
    <path id="Path_113" data-name="Path 113" d="M26.4,43.809l4.817-4.026L27.069,37.69Z" transform="translate(-6.294 -9.467)" fill="#a8cae1"/>
    <path id="Path_114" data-name="Path 114" d="M36.671,20.546,14.633,28.771a.575.575,0,0,0,.043,1.093l7.909,2.265a.625.625,0,0,1,.194.1L32.7,39.851a.575.575,0,0,0,.913-.338l3.811-18.27a.575.575,0,0,0-.755-.7Z" transform="translate(-2.882 -4.639)" fill="#fff"/>
    <path id="Path_115" data-name="Path 115" d="M23.24,32.738l2.272,7.42.669-6.119,10.4-9.34Z" transform="translate(-5.406 -5.817)" fill="#c1d8e9"/>
  </g>
</svg>
