<svg id="_3721678_whatsapp_icon" data-name="3721678_whatsapp_icon" xmlns="http://www.w3.org/2000/svg" width="36" height="36" viewBox="0 0 40 40">
  <rect id="Artboard1" width="40" height="40" fill="none"/>
  <g id="Group_39770" data-name="Group 39770" transform="translate(-2.285 -2.397)">
    <g id="Group_39769" data-name="Group 39769" transform="translate(2.5 2.397)">
      <path id="Path_109" data-name="Path 109" d="M5.662,32.91a19.783,19.783,0,1,1,6.5,6.269L2.5,42.4,5.662,32.91Z" transform="translate(-2.5 -2.397)" fill="#f3f3f3" fill-rule="evenodd"/>
      <path id="Path_110" data-name="Path 110" d="M7.318,29.317a15.85,15.85,0,1,1,3.993,3.918L5.35,35.221Z" transform="translate(-0.456 -0.353)" fill="#00a82d" fill-rule="evenodd"/>
    </g>
    <path id="Path_111" data-name="Path 111" d="M12.011,21.222A20.115,20.115,0,0,1,7.619,11.059,3.537,3.537,0,0,1,11.428,7.1l.1.01s1.168.312,1.808.485a.79.79,0,0,1,.541.506c.287.854.966,2.86,1.287,3.8a.789.789,0,0,1-.237.854c-.485.408-1.287,1.083-1.787,1.506a.782.782,0,0,0-.208.923,16.19,16.19,0,0,0,2.2,3.52,16.16,16.16,0,0,0,3.093,2.764.782.782,0,0,0,.946-.05c.5-.421,1.3-1.1,1.787-1.5a.789.789,0,0,1,.883-.09l3.528,1.912a.784.784,0,0,1,.408.619c.06.66.173,1.864.173,1.864l-.008.1A3.537,3.537,0,0,1,21.4,27.406a20.1,20.1,0,0,1-9.328-6.117l-.056-.067Z" transform="translate(5.513 5.076)" fill="#f3f3f3" fill-rule="evenodd"/>
  </g>
</svg>
